<?xml version="1.0" encoding="UTF-8" standalone="no" ?>
<!DOCTYPE svg PUBLIC "-//W3C//DTD SVG 1.1//EN" "http://www.w3.org/Graphics/SVG/1.1/DTD/svg11.dtd">
<svg xmlns="http://www.w3.org/2000/svg" xmlns:xlink="http://www.w3.org/1999/xlink" version="1.1" width="1080" height="1080" viewBox="0 0 1080 1080" xml:space="preserve">
<desc>Created with Fabric.js 5.2.4</desc>
<defs>
</defs>
<rect x="0" y="0" width="100%" height="100%" fill="transparent"></rect>
<g transform="matrix(1 0 0 1 540 540)" id="b9221234-fcc7-43d1-b25f-b5f479f96767"  >
<rect style="stroke: none; stroke-width: 1; stroke-dasharray: none; stroke-linecap: butt; stroke-dashoffset: 0; stroke-linejoin: miter; stroke-miterlimit: 4; fill: rgb(255,255,255); fill-rule: nonzero; opacity: 1; visibility: hidden;" vector-effect="non-scaling-stroke"  x="-540" y="-540" rx="0" ry="0" width="1080" height="1080" />
</g>
<g transform="matrix(1 0 0 1 540 540)" id="d023f59e-d782-401f-9cf4-6bcf79c9b795"  >
</g>
<g transform="matrix(2.11 0 0 2.11 540 540)"  >
<g style=""   >
		<g transform="matrix(0.13 0 0 -0.13 -0.24 -0.01)"  >
<path style="stroke: none; stroke-width: 1; stroke-dasharray: none; stroke-linecap: butt; stroke-dashoffset: 0; stroke-linejoin: miter; stroke-miterlimit: 4; fill: rgb(255,255,255); fill-rule: nonzero; opacity: 1;" vector-effect="non-scaling-stroke"  transform=" translate(-2558.2, -2560.06)" d="M 1459 5060 C 1289 4946 1063 4779 1051 4758 C 1043 4744 1040 4723 1043 4709 C 1046 4696 1103 4609 1169 4515 C 1236 4422 1286 4343 1282 4339 C 1278 4336 1200 4280 1109 4216 L 943 4100 L 789 4100 C 619 4100 586 4094 518 4051 C 426 3992 370 3880 370 3753 C 370 3670 354 3660 223 3660 C 144 3660 119 3656 94 3641 C 16 3593 -10 3478 30 3349 C 49 3286 60 3268 110 3219 C 171 3159 269 3104 332 3094 L 370 3088 L 372 1961 L 375 835 L 408 768 C 443 696 486 654 560 617 C 605 595 611 595 1171 590 L 1738 585 L 1688 500 C 1511 202 1498 177 1503 137 C 1509 94 1538 58 1578 41 C 1597 33 1940 30 2758 32 L 3912 35 L 3947 74 C 4001 132 3994 159 3866 377 C 3808 477 3757 566 3754 574 C 3749 588 3811 590 4312 592 L 4875 595 L 4932 623 C 4995 654 5048 709 5082 779 L 5105 825 L 5105 2345 L 5105 3865 L 5077 3922 C 5047 3984 4994 4037 4928 4072 L 4885 4095 L 3960 4100 L 3035 4105 L 2997 4132 C 2923 4184 2855 4204 2745 4204 C 2631 4205 2575 4189 2489 4135 C 2435 4101 2435 4101 2314 4100 L 2193 4100 L 2182 4138 C 2162 4203 2074 4374 2008 4477 C 1912 4624 1583 5063 1557 5077 C 1524 5096 1508 5093 1459 5060 z M 1449 4119 C 1484 4070 1510 4027 1508 4025 C 1506 4022 1259 3847 959 3635 C 368 3217 390 3229 310 3270 C 218 3317 170 3382 170 3460 L 170 3500 L 269 3500 L 368 3500 L 431 3544 C 466 3568 693 3727 935 3898 C 1177 4070 1378 4210 1381 4210 C 1384 4210 1415 4169 1449 4119 z M 708 3935 C 680 3907 544 3822 541 3831 C 530 3865 625 3940 678 3940 C 697 3940 711 3938 708 3935 z M 2305 3918 C 2279 3833 2270 3772 2270 3673 C 2270 3569 2272 3559 2294 3533 C 2318 3505 2320 3505 2447 3502 C 2594 3498 2643 3510 2660 3555 C 2666 3570 2670 3625 2670 3677 C 2670 3790 2681 3810 2741 3810 C 2770 3810 2783 3804 2799 3784 C 2818 3760 2820 3744 2820 3604 L 2820 3452 L 2538 3448 C 2271 3445 2253 3444 2215 3423 C 2169 3399 2140 3369 2114 3320 C 2096 3288 2095 3256 2095 2890 C 2095 2501 2095 2494 2117 2453 C 2146 2400 2201 2355 2256 2341 C 2284 2334 2456 2330 2743 2330 C 3244 2330 3259 2332 3321 2397 C 3387 2466 3385 2449 3388 2863 C 3392 3307 3389 3322 3314 3389 C 3289 3411 3255 3432 3239 3435 L 3210 3442 L 3210 3625 C 3210 3780 3207 3818 3190 3872 C 3179 3906 3170 3936 3170 3938 C 3170 3939 3545 3940 4004 3940 L 4837 3940 L 4870 3918 C 4888 3905 4913 3882 4924 3867 L 4945 3839 L 4948 2494 L 4950 1150 L 2740 1150 L 530 1150 L 530 2143 L 530 3137 L 1060 3511 C 1352 3717 1596 3885 1602 3885 C 1618 3885 1789 3644 1833 3560 C 1852 3524 1877 3465 1890 3427 C 1913 3355 1929 3340 1980 3340 C 2020 3340 2050 3371 2109 3474 C 2184 3606 2229 3759 2230 3888 L 2230 3940 L 2271 3940 C 2309 3940 2312 3938 2305 3918 z M 3216 3266 C 3227 3250 3230 3181 3230 2888 C 3230 2542 3229 2529 3210 2510 C 3190 2490 3180 2489 2735 2492 C 2379 2494 2278 2498 2268 2508 C 2258 2518 2255 2600 2255 2886 L 2255 3252 L 2279 3271 C 2302 3290 2320 3290 2752 3288 C 3184 3285 3202 3284 3216 3266 z M 3672 393 L 3787 195 L 2747 192 C 2175 191 1705 192 1702 195 C 1700 197 1749 287 1811 395 L 1925 590 L 2741 590 L 3557 590 L 3672 393 z" stroke-linecap="round" />
</g>
		<g transform="matrix(0.13 0 0 -0.13 24.33 101.3)"  >
<path style="stroke: none; stroke-width: 1; stroke-dasharray: none; stroke-linecap: butt; stroke-dashoffset: 0; stroke-linejoin: miter; stroke-miterlimit: 4; fill: rgb(255,255,255); fill-rule: nonzero; opacity: 1;" vector-effect="non-scaling-stroke"  transform=" translate(-2742.5, -1800.24)" d="M 1180 2273 C 1141 2261 1118 2244 1100 2214 C 1081 2184 1080 2163 1080 1795 L 1080 1408 L 1118 1370 C 1149 1338 1165 1331 1210 1326 C 1240 1322 1949 1320 2785 1322 C 4461 1325 4340 1320 4383 1389 C 4405 1425 4405 1430 4405 1800 C 4405 2157 4404 2177 4385 2209 C 4374 2227 4349 2251 4330 2261 C 4297 2279 4239 2280 2745 2279 C 1893 2279 1188 2276 1180 2273 z M 1597 2018 C 1615 2001 1620 1986 1620 1947 C 1620 1898 1620 1898 1648 1904 C 1728 1922 1735 1922 1763 1900 C 1784 1883 1790 1870 1790 1840 C 1790 1797 1761 1766 1710 1755 C 1674 1747 1673 1743 1705 1700 C 1737 1657 1737 1616 1705 1585 C 1667 1546 1625 1551 1581 1600 L 1546 1640 L 1509 1600 C 1464 1551 1423 1546 1385 1585 C 1353 1616 1353 1657 1385 1700 C 1417 1743 1416 1747 1380 1755 C 1329 1766 1300 1797 1300 1840 C 1300 1870 1306 1883 1327 1900 C 1355 1922 1362 1922 1443 1904 C 1470 1898 1470 1898 1470 1946 C 1470 2030 1541 2070 1597 2018 z M 2197 2018 C 2215 2001 2220 1986 2220 1947 C 2220 1898 2220 1898 2248 1904 C 2334 1923 2338 1923 2364 1897 C 2413 1848 2391 1780 2320 1759 C 2298 1752 2280 1743 2280 1739 C 2280 1734 2291 1714 2305 1694 C 2319 1674 2330 1651 2330 1644 C 2330 1618 2307 1582 2283 1571 C 2241 1552 2218 1559 2179 1601 L 2140 1643 L 2121 1619 C 2110 1606 2101 1592 2100 1589 C 2100 1580 2051 1560 2029 1560 C 2000 1560 1960 1604 1960 1637 C 1960 1653 1971 1682 1985 1702 C 2009 1738 2010 1739 1991 1750 C 1980 1755 1965 1760 1957 1760 C 1948 1760 1930 1774 1915 1792 C 1883 1829 1887 1863 1927 1899 C 1954 1922 1973 1923 2038 1904 C 2058 1898 2060 1901 2060 1934 C 2060 1974 2082 2025 2102 2033 C 2133 2046 2175 2039 2197 2018 z M 2795 2015 C 2814 1996 2820 1980 2820 1944 C 2820 1901 2822 1898 2843 1904 C 2916 1924 2938 1923 2964 1897 C 3013 1848 2991 1780 2920 1759 C 2874 1745 2872 1739 2902 1698 C 2932 1655 2930 1612 2896 1583 C 2856 1549 2823 1553 2778 1600 L 2740 1641 L 2702 1600 C 2658 1554 2627 1549 2586 1581 C 2551 1609 2551 1661 2586 1707 C 2609 1738 2610 1741 2593 1747 C 2528 1769 2512 1780 2501 1809 C 2472 1877 2533 1934 2609 1911 C 2662 1896 2660 1895 2660 1945 C 2660 2002 2692 2040 2740 2040 C 2759 2040 2780 2031 2795 2015 z M 3395 2015 C 3414 1997 3420 1980 3420 1945 C 3420 1895 3418 1896 3471 1911 C 3547 1934 3608 1877 3579 1809 C 3568 1780 3552 1769 3487 1747 C 3470 1741 3471 1738 3494 1707 C 3529 1661 3529 1609 3494 1581 C 3453 1549 3422 1554 3378 1601 L 3339 1642 L 3301 1601 C 3257 1553 3225 1548 3184 1583 C 3150 1612 3148 1655 3178 1698 C 3208 1739 3206 1745 3160 1759 C 3089 1780 3067 1848 3116 1897 C 3142 1923 3164 1924 3238 1904 C 3258 1898 3260 1901 3260 1944 C 3260 2002 3292 2040 3340 2040 C 3359 2040 3380 2031 3395 2015 z M 3975 2034 C 3998 2025 4020 1977 4020 1934 C 4020 1901 4022 1898 4043 1904 C 4108 1923 4126 1922 4155 1898 C 4191 1866 4193 1820 4160 1785 C 4147 1771 4133 1760 4129 1760 C 4125 1760 4110 1756 4095 1750 L 4069 1740 L 4095 1703 C 4109 1682 4120 1653 4120 1637 C 4120 1604 4080 1560 4051 1560 C 4029 1560 3980 1580 3980 1589 C 3979 1592 3970 1606 3959 1619 L 3940 1643 L 3901 1601 C 3848 1544 3794 1546 3762 1607 C 3745 1638 3747 1653 3775 1694 C 3789 1714 3800 1734 3800 1739 C 3800 1743 3782 1752 3760 1759 C 3689 1780 3667 1848 3716 1897 C 3742 1923 3746 1923 3833 1904 C 3860 1898 3860 1898 3860 1946 C 3860 2020 3910 2059 3975 2034 z" stroke-linecap="round" />
</g>
		<g transform="matrix(0.13 0 0 -0.13 24.14 -43.84)"  >
<path style="stroke: none; stroke-width: 1; stroke-dasharray: none; stroke-linecap: butt; stroke-dashoffset: 0; stroke-linejoin: miter; stroke-miterlimit: 4; fill: rgb(255,255,255); fill-rule: nonzero; opacity: 1;" vector-effect="non-scaling-stroke"  transform=" translate(-2741.03, -2888.79)" d="M 2656 3216 C 2534 3170 2461 3040 2490 2919 C 2497 2891 2517 2847 2536 2820 C 2563 2781 2570 2760 2570 2723 C 2571 2593 2704 2511 2820 2570 C 2876 2599 2903 2642 2908 2713 C 2912 2759 2920 2783 2946 2821 C 3001 2904 3011 2960 2984 3049 C 2966 3110 2914 3172 2856 3202 C 2804 3229 2708 3235 2656 3216 z" stroke-linecap="round" />
</g>
</g>
</g>
</svg>