<?xml version="1.0" encoding="UTF-8" standalone="no" ?>
<!DOCTYPE svg PUBLIC "-//W3C//DTD SVG 1.1//EN" "http://www.w3.org/Graphics/SVG/1.1/DTD/svg11.dtd">
<svg xmlns="http://www.w3.org/2000/svg" xmlns:xlink="http://www.w3.org/1999/xlink" version="1.1" width="1080" height="1080" viewBox="0 0 1080 1080" xml:space="preserve">
<desc>Created with Fabric.js 5.2.4</desc>
<defs>
</defs>
<rect x="0" y="0" width="100%" height="100%" fill="transparent"></rect>
<g transform="matrix(1 0 0 1 540 540)" id="b9221234-fcc7-43d1-b25f-b5f479f96767"  >
<rect style="stroke: none; stroke-width: 1; stroke-dasharray: none; stroke-linecap: butt; stroke-dashoffset: 0; stroke-linejoin: miter; stroke-miterlimit: 4; fill: rgb(255,255,255); fill-rule: nonzero; opacity: 1; visibility: hidden;" vector-effect="non-scaling-stroke"  x="-540" y="-540" rx="0" ry="0" width="1080" height="1080" />
</g>
<g transform="matrix(1 0 0 1 540 540)" id="d023f59e-d782-401f-9cf4-6bcf79c9b795"  >
</g>
<g transform="matrix(1 0 0 1 540 540)"  >
<g style="" vector-effect="non-scaling-stroke"   >
		<g transform="matrix(0.13 0 0 -0.13 0 0)"  >
<path style="stroke: none; stroke-width: 1; stroke-dasharray: none; stroke-linecap: butt; stroke-dashoffset: 0; stroke-linejoin: miter; stroke-miterlimit: 4; fill: rgb(255,255,255); fill-rule: nonzero; opacity: 1;" vector-effect="non-scaling-stroke"  transform=" translate(-2561.96, -2561.12)" d="M 283 5016 C 177 4982 69 4884 28 4782 L 5 4725 L 5 2560 L 5 395 L 28 337 C 61 256 144 169 228 128 L 295 95 L 2560 95 L 4825 95 L 4882 122 C 4950 153 5029 225 5065 285 C 5124 386 5120 252 5118 2586 L 5115 4725 L 5092 4783 C 5059 4864 4976 4951 4892 4992 L 4825 5025 L 2575 5027 C 734 5028 317 5026 283 5016 z M 4800 4768 C 4818 4755 4843 4732 4854 4717 L 4875 4689 L 4875 2560 L 4875 431 L 4854 403 C 4843 388 4818 365 4800 352 L 4767 330 L 2560 330 L 353 330 L 320 353 C 302 365 277 388 266 403 L 245 431 L 245 2560 L 245 4689 L 266 4717 C 277 4732 302 4755 320 4768 L 353 4790 L 2560 4790 L 4767 4790 L 4800 4768 z" stroke-linecap="round" />
</g>
		<g transform="matrix(0.13 0 0 -0.13 -0.26 0.15)"  >
<path style="stroke: none; stroke-width: 1; stroke-dasharray: none; stroke-linecap: butt; stroke-dashoffset: 0; stroke-linejoin: miter; stroke-miterlimit: 4; fill: rgb(255,255,255); fill-rule: nonzero; opacity: 1;" vector-effect="non-scaling-stroke"  transform=" translate(-2560, -2560.02)" d="M 713 4244 C 695 4235 673 4216 663 4201 C 646 4176 645 4120 645 3145 C 645 2023 642 2087 703 2050 C 732 2032 755 2030 963 2030 L 1190 2030 L 1190 1730 C 1190 1464 1192 1426 1207 1403 C 1237 1358 1274 1350 1459 1350 L 1629 1350 L 1632 1141 C 1635 949 1637 930 1655 910 C 1700 859 1681 860 2560 860 C 3464 860 3431 858 3470 922 C 3488 952 3490 972 3490 1153 L 3490 1350 L 3660 1350 C 3846 1350 3883 1358 3913 1403 C 3928 1426 3930 1464 3930 1730 L 3930 2030 L 4158 2030 C 4365 2030 4388 2032 4417 2050 C 4478 2087 4475 2023 4475 3145 C 4475 4122 4474 4176 4457 4202 C 4414 4264 4550 4260 2558 4260 C 927 4260 742 4258 713 4244 z M 4235 3145 L 4235 2275 L 4005 2270 C 3760 2265 3745 2262 3712 2213 C 3697 2189 3695 2152 3692 1889 L 3689 1591 L 3505 1588 L 3320 1585 L 3288 1552 L 3255 1520 L 3252 1310 L 3249 1100 L 2560 1100 L 1871 1100 L 1868 1310 L 1865 1520 L 1832 1552 L 1800 1585 L 1615 1588 L 1431 1591 L 1428 1889 C 1425 2152 1423 2189 1408 2213 C 1375 2262 1360 2265 1115 2270 L 885 2275 L 882 3135 C 881 3608 882 4001 885 4008 C 888 4018 1229 4020 2562 4018 L 4235 4015 L 4235 3145 z" stroke-linecap="round" />
</g>
		<g transform="matrix(0.13 0 0 -0.13 -157.59 -91.49)"  >
<path style="stroke: none; stroke-width: 1; stroke-dasharray: none; stroke-linecap: butt; stroke-dashoffset: 0; stroke-linejoin: miter; stroke-miterlimit: 4; fill: rgb(255,255,255); fill-rule: nonzero; opacity: 1;" vector-effect="non-scaling-stroke"  transform=" translate(-1380, -3247.31)" d="M 1315 3648 C 1263 3607 1260 3587 1260 3257 C 1260 3089 1263 2938 1266 2921 C 1274 2880 1320 2835 1360 2826 C 1400 2819 1450 2839 1478 2875 C 1500 2902 1500 2909 1500 3252 L 1500 3602 L 1466 3636 C 1437 3665 1425 3670 1387 3670 C 1357 3670 1334 3663 1315 3648 z" stroke-linecap="round" />
</g>
		<g transform="matrix(0.13 0 0 -0.13 -78.92 -91.56)"  >
<path style="stroke: none; stroke-width: 1; stroke-dasharray: none; stroke-linecap: butt; stroke-dashoffset: 0; stroke-linejoin: miter; stroke-miterlimit: 4; fill: rgb(255,255,255); fill-rule: nonzero; opacity: 1;" vector-effect="non-scaling-stroke"  transform=" translate(-1970.02, -3247.83)" d="M 1908 3652 C 1851 3617 1849 3602 1852 3236 C 1855 2914 1856 2900 1876 2873 C 1920 2814 2009 2810 2061 2866 L 2085 2892 L 2088 3233 C 2091 3597 2089 3613 2042 3650 C 2011 3675 1945 3676 1908 3652 z" stroke-linecap="round" />
</g>
		<g transform="matrix(0.13 0 0 -0.13 -0.26 -91.42)"  >
<path style="stroke: none; stroke-width: 1; stroke-dasharray: none; stroke-linecap: butt; stroke-dashoffset: 0; stroke-linejoin: miter; stroke-miterlimit: 4; fill: rgb(255,255,255); fill-rule: nonzero; opacity: 1;" vector-effect="non-scaling-stroke"  transform=" translate(-2560, -3246.79)" d="M 2498 3654 C 2442 3624 2440 3612 2440 3247 C 2440 2916 2440 2913 2463 2879 C 2495 2831 2552 2812 2602 2833 C 2623 2842 2648 2863 2660 2882 C 2679 2913 2680 2932 2680 3248 C 2680 3526 2678 3586 2665 3610 C 2637 3665 2556 3686 2498 3654 z" stroke-linecap="round" />
</g>
		<g transform="matrix(0.13 0 0 -0.13 78.4 -91.57)"  >
<path style="stroke: none; stroke-width: 1; stroke-dasharray: none; stroke-linecap: butt; stroke-dashoffset: 0; stroke-linejoin: miter; stroke-miterlimit: 4; fill: rgb(255,255,255); fill-rule: nonzero; opacity: 1;" vector-effect="non-scaling-stroke"  transform=" translate(-3149.94, -3247.88)" d="M 3078 3650 C 3031 3613 3029 3597 3032 3233 L 3035 2892 L 3059 2866 C 3111 2810 3200 2814 3244 2873 C 3264 2900 3265 2914 3268 3236 C 3271 3605 3268 3625 3209 3655 C 3169 3676 3108 3674 3078 3650 z" stroke-linecap="round" />
</g>
		<g transform="matrix(0.13 0 0 -0.13 157.07 -91.49)"  >
<path style="stroke: none; stroke-width: 1; stroke-dasharray: none; stroke-linecap: butt; stroke-dashoffset: 0; stroke-linejoin: miter; stroke-miterlimit: 4; fill: rgb(255,255,255); fill-rule: nonzero; opacity: 1;" vector-effect="non-scaling-stroke"  transform=" translate(-3740, -3247.31)" d="M 3654 3636 L 3620 3602 L 3620 3252 C 3620 2909 3620 2902 3642 2875 C 3670 2839 3720 2819 3760 2826 C 3800 2835 3846 2880 3854 2921 C 3857 2938 3860 3089 3860 3257 C 3860 3587 3857 3607 3805 3648 C 3786 3663 3763 3670 3733 3670 C 3695 3670 3683 3665 3654 3636 z" stroke-linecap="round" />
</g>
</g>
</g>
</svg>