<?xml version="1.0" encoding="UTF-8" standalone="no" ?>
<!DOCTYPE svg PUBLIC "-//W3C//DTD SVG 1.1//EN" "http://www.w3.org/Graphics/SVG/1.1/DTD/svg11.dtd">
<svg xmlns="http://www.w3.org/2000/svg" xmlns:xlink="http://www.w3.org/1999/xlink" version="1.1" width="1080" height="1080" viewBox="0 0 1080 1080" xml:space="preserve">
<desc>Created with Fabric.js 5.2.4</desc>
<defs>
</defs>
<g transform="matrix(1 0 0 1 540 540)" id="b9221234-fcc7-43d1-b25f-b5f479f96767"  >
<rect style="stroke: none; stroke-width: 1; stroke-dasharray: none; stroke-linecap: butt; stroke-dashoffset: 0; stroke-linejoin: miter; stroke-miterlimit: 4; fill: rgb(255,255,255); fill-rule: nonzero; opacity: 1; visibility: hidden;" vector-effect="non-scaling-stroke"  x="-540" y="-540" rx="0" ry="0" width="1080" height="1080" />
</g>
<g transform="matrix(1 0 0 1 540 540)" id="d023f59e-d782-401f-9cf4-6bcf79c9b795"  >
</g>
<g transform="matrix(2.11 0 0 2.11 540 540)"  >
<g style=""   >
		<g transform="matrix(0.13 0 0 -0.13 54.62 1.67)"  >
<path style="stroke: none; stroke-width: 1; stroke-dasharray: none; stroke-linecap: butt; stroke-dashoffset: 0; stroke-linejoin: miter; stroke-miterlimit: 4; fill: rgb(255,255,255); fill-rule: nonzero; opacity: 1;" vector-effect="non-scaling-stroke"  transform=" translate(-2969.61, -2547.49)" d="M 3839 4348 C 3811 4325 2567 2707 2556 2679 C 2537 2626 2600 2573 2655 2598 C 2667 2604 2904 2902 3181 3261 C 3458 3621 3695 3926 3708 3940 C 3728 3962 3730 3962 3726 3945 C 3681 3772 3470 2869 3470 2848 C 3470 2833 3479 2811 3490 2800 C 3509 2781 3523 2780 3880 2780 C 4084 2780 4250 2778 4250 2774 C 4250 2763 2995 1139 2993 1147 C 2991 1152 3051 1413 3125 1727 C 3199 2042 3260 2306 3260 2315 C 3260 2324 3249 2342 3235 2355 L 3211 2380 L 2357 2380 C 1512 2380 1504 2380 1482 2360 C 1453 2333 1453 2280 1481 2254 C 1501 2236 1531 2235 2296 2232 C 2733 2231 3090 2227 3090 2223 C 3090 2220 3015 1900 2924 1513 C 2819 1066 2761 799 2764 783 C 2771 756 2821 730 2850 737 C 2860 740 2879 754 2893 768 C 2926 805 4456 2794 4469 2819 C 4485 2849 4482 2874 4460 2898 C 4439 2920 4438 2920 4040 2920 C 3821 2920 3639 2923 3637 2928 C 3635 2932 3707 3243 3798 3619 L 3962 4303 L 3942 4329 C 3920 4359 3865 4369 3839 4348 z" stroke-linecap="round" />
</g>
		<g transform="matrix(0.13 0 0 -0.13 -111.78 -108.75)"  >
<path style="stroke: none; stroke-width: 1; stroke-dasharray: none; stroke-linecap: butt; stroke-dashoffset: 0; stroke-linejoin: miter; stroke-miterlimit: 4; fill: rgb(255,255,255); fill-rule: nonzero; opacity: 1;" vector-effect="non-scaling-stroke"  transform=" translate(-1721.65, -3375.64)" d="M 647 3439 C 594 3408 608 3327 669 3310 C 693 3302 1040 3300 1748 3302 L 2792 3305 L 2811 3329 C 2837 3361 2835 3396 2805 3425 L 2781 3450 L 1723 3450 C 1003 3449 659 3446 647 3439 z" stroke-linecap="round" />
</g>
		<g transform="matrix(0.13 0 0 -0.13 -108.15 -37.85)"  >
<path style="stroke: none; stroke-width: 1; stroke-dasharray: none; stroke-linecap: butt; stroke-dashoffset: 0; stroke-linejoin: miter; stroke-miterlimit: 4; fill: rgb(255,255,255); fill-rule: nonzero; opacity: 1;" vector-effect="non-scaling-stroke"  transform=" translate(-1748.88, -2843.85)" d="M 1120 2907 C 1069 2881 1063 2805 1110 2780 C 1122 2774 1365 2770 1754 2770 C 2367 2770 2380 2770 2400 2790 C 2427 2817 2426 2871 2399 2896 C 2379 2914 2352 2915 1761 2917 C 1280 2919 1140 2917 1120 2907 z" stroke-linecap="round" />
</g>
</g>
</g>
</svg>