<?xml version="1.0" encoding="UTF-8" standalone="no" ?>
<!DOCTYPE svg PUBLIC "-//W3C//DTD SVG 1.1//EN" "http://www.w3.org/Graphics/SVG/1.1/DTD/svg11.dtd">
<svg xmlns="http://www.w3.org/2000/svg" xmlns:xlink="http://www.w3.org/1999/xlink" version="1.1" width="1080" height="1080" viewBox="0 0 1080 1080" xml:space="preserve">
<desc>Created with Fabric.js 5.2.4</desc>
<defs>
</defs>
<rect x="0" y="0" width="100%" height="100%" fill="transparent"></rect>
<g transform="matrix(1 0 0 1 540 540)" id="b9221234-fcc7-43d1-b25f-b5f479f96767"  >
<rect style="stroke: none; stroke-width: 1; stroke-dasharray: none; stroke-linecap: butt; stroke-dashoffset: 0; stroke-linejoin: miter; stroke-miterlimit: 4; fill: rgb(255,255,255); fill-rule: nonzero; opacity: 1; visibility: hidden;" vector-effect="non-scaling-stroke"  x="-540" y="-540" rx="0" ry="0" width="1080" height="1080" />
</g>
<g transform="matrix(1 0 0 1 540 540)" id="d023f59e-d782-401f-9cf4-6bcf79c9b795"  >
</g>
<g transform="matrix(2.11 0 0 2.11 540 540)"  >
<g style=""   >
		<g transform="matrix(0.13 0 0 -0.13 -173.31 0.1)"  >
<path style="stroke: none; stroke-width: 1; stroke-dasharray: none; stroke-linecap: butt; stroke-dashoffset: 0; stroke-linejoin: miter; stroke-miterlimit: 4; fill: rgb(255,255,255); fill-rule: nonzero; opacity: 1;" vector-effect="non-scaling-stroke"  transform=" translate(-1260.19, -2559.25)" d="M 1595 4711 C 1502 4669 1446 4581 1445 4477 L 1445 4408 L 1021 4167 C 788 4035 592 3920 584 3912 C 563 3892 563 1228 584 1208 C 592 1200 788 1085 1021 953 L 1445 712 L 1445 643 C 1447 466 1608 350 1782 402 C 1834 417 1903 479 1930 534 C 1962 601 1959 686 1923 758 C 1849 908 1676 943 1529 838 C 1515 829 1443 866 1106 1056 L 701 1285 L 701 2560 L 701 3835 L 1106 4064 C 1443 4254 1515 4291 1529 4282 C 1676 4177 1849 4212 1923 4362 C 1959 4434 1962 4519 1930 4586 C 1903 4641 1834 4703 1782 4718 C 1725 4735 1641 4732 1595 4711 z M 1764 4581 C 1803 4555 1819 4524 1820 4473 C 1821 4366 1688 4313 1612 4390 C 1510 4492 1644 4660 1764 4581 z M 1750 755 C 1814 722 1840 642 1806 582 C 1774 523 1692 503 1633 540 C 1593 564 1577 594 1577 645 C 1577 694 1600 733 1643 754 C 1683 774 1713 774 1750 755 z" stroke-linecap="round" />
</g>
		<g transform="matrix(0.13 0 0 -0.13 173.37 0.12)"  >
<path style="stroke: none; stroke-width: 1; stroke-dasharray: none; stroke-linecap: butt; stroke-dashoffset: 0; stroke-linejoin: miter; stroke-miterlimit: 4; fill: rgb(255,255,255); fill-rule: nonzero; opacity: 1;" vector-effect="non-scaling-stroke"  transform=" translate(-3860.25, -2559.13)" d="M 3332 4717 C 3283 4702 3205 4627 3185 4578 C 3164 4525 3163 4427 3184 4379 C 3247 4230 3432 4175 3565 4266 C 3585 4280 3608 4290 3614 4288 C 3621 4286 3804 4184 4023 4060 L 4419 3835 L 4419 2560 L 4419 1285 L 4023 1060 C 3804 936 3621 834 3614 832 C 3608 830 3585 840 3565 854 C 3432 945 3247 890 3184 741 C 3163 693 3164 595 3185 542 C 3206 490 3284 418 3338 402 C 3512 350 3672 465 3674 643 L 3675 712 L 4098 953 C 4331 1085 4528 1200 4536 1207 C 4557 1228 4557 3892 4536 3913 C 4528 3920 4331 4035 4098 4167 L 3675 4408 L 3674 4477 C 3673 4582 3618 4669 3525 4711 C 3480 4732 3386 4735 3332 4717 z M 3491 4577 C 3579 4518 3549 4374 3444 4354 C 3373 4341 3300 4400 3300 4471 C 3300 4578 3404 4636 3491 4577 z M 3476 754 C 3534 726 3562 639 3531 581 C 3502 527 3418 505 3360 535 C 3297 568 3280 664 3327 720 C 3370 772 3416 782 3476 754 z" stroke-linecap="round" />
</g>
		<g transform="matrix(0.13 0 0 -0.13 -0.02 0.07)"  >
<path style="stroke: none; stroke-width: 1; stroke-dasharray: none; stroke-linecap: butt; stroke-dashoffset: 0; stroke-linejoin: miter; stroke-miterlimit: 4; fill: rgb(255,255,255); fill-rule: nonzero; opacity: 1;" vector-effect="non-scaling-stroke"  transform=" translate(-2559.88, -2559.5)" d="M 1788 3633 C 1225 3353 1049 3261 1041 3243 C 1017 3190 1032 3179 1332 3029 L 1615 2887 L 1332 2749 C 931 2553 931 2567 1332 2371 L 1615 2233 L 1332 2091 C 1032 1941 1017 1930 1041 1877 C 1049 1859 1225 1768 1793 1486 C 2201 1285 2546 1120 2560 1120 C 2574 1119 2919 1285 3327 1486 C 3961 1800 4070 1857 4078 1879 C 4097 1934 4086 1942 3788 2091 L 3505 2233 L 3787 2371 C 4189 2567 4189 2553 3787 2749 L 3505 2887 L 3788 3029 C 4086 3178 4097 3186 4078 3241 C 4070 3263 3961 3320 3327 3634 C 2812 3888 2576 4000 2555 3999 C 2537 3999 2220 3847 1788 3633 z M 3213 3544 C 3566 3370 3858 3224 3862 3221 C 3865 3218 3574 3070 3215 2893 L 2561 2571 L 2168 2764 C 1952 2871 1657 3016 1512 3087 L 1249 3217 L 1702 3441 C 1951 3564 2243 3708 2350 3762 C 2457 3815 2551 3859 2558 3859 C 2565 3860 2859 3718 3213 3544 z M 2161 2620 C 2371 2516 2551 2430 2561 2430 C 2571 2430 2750 2516 2960 2620 C 3169 2725 3347 2810 3355 2810 C 3372 2810 3860 2568 3860 2560 C 3860 2557 3568 2410 3210 2233 L 2560 1912 L 1910 2233 C 1553 2410 1260 2557 1260 2560 C 1260 2568 1750 2810 1766 2810 C 1773 2810 1951 2725 2161 2620 z M 2492 1800 L 2559 1766 L 2957 1961 L 3355 2156 L 3613 2030 L 3872 1903 L 3443 1691 C 3208 1574 2913 1429 2787 1368 L 2560 1257 L 2282 1393 C 2130 1467 1835 1613 1627 1716 L 1248 1903 L 1507 2030 L 1765 2156 L 2095 1995 C 2277 1906 2455 1818 2492 1800 z" stroke-linecap="round" />
</g>
</g>
</g>
</svg>